<svg version="1.1" xmlns="http://www.w3.org/2000/svg" viewBox="0 0 1050.8146929824563 624.1315789473684" width="1050.8146929824563" height="624.1315789473684" class="excalidraw-svg">
  <!-- svg-source:excalidraw -->
  
  <defs>
    <style class="style-fonts">
      @font-face {
        font-family: "Virgil";
        src: url("https://excalidraw.com/Virgil.woff2");
      }
      @font-face {
        font-family: "Cascadia";
        src: url("https://excalidraw.com/Cascadia.woff2");
      }
      @font-face {
        font-family: "Assistant";
        src: url("https://excalidraw.com/Assistant-Regular.woff2");
      }
    </style>
    
  </defs>
  <rect x="0" y="0" width="1050.8146929824563" height="624.1315789473684" fill="#ffffff"/><g stroke-linecap="round" transform="translate(16.65789473684208 55.63157894736844) rotate(0 114.5 21.5)"><path d="M10.75 0 C90.48 -0.24, 173.86 -0.94, 218.25 0 M10.75 0 C83.16 -0.55, 157.32 -0.42, 218.25 0 M218.25 0 C225.4 1.67, 229.67 4.91, 229 10.75 M218.25 0 C224.12 -1.42, 229.83 3.75, 229 10.75 M229 10.75 C229.53 17.94, 228.29 23.12, 229 32.25 M229 10.75 C228.62 19.55, 229.44 26.76, 229 32.25 M229 32.25 C230.23 37.69, 226.68 44.4, 218.25 43 M229 32.25 C229.88 39.92, 224.48 44.43, 218.25 43 M218.25 43 C135.34 40.8, 55.05 41.88, 10.75 43 M218.25 43 C175.03 41.78, 132.82 40.89, 10.75 43 M10.75 43 C3.12 41.88, -1.35 41.18, 0 32.25 M10.75 43 C3.15 44.46, 1.41 40.48, 0 32.25 M0 32.25 C0.18 28.15, -1.92 24.06, 0 10.75 M0 32.25 C-0.77 25.69, 0.12 16.76, 0 10.75 M0 10.75 C-1.93 5.25, 2.39 -1.2, 10.75 0 M0 10.75 C-2.02 5.66, 4.1 2.2, 10.75 0" stroke="#1e1e1e" stroke-width="2" fill="none"/></g><g transform="translate(58.79266036184208 61.031578947368445) rotate(0 72.365234375 16.099999999999994)"><text x="72.365234375" y="0" font-family="Helvetica, Segoe UI Emoji" font-size="28px" fill="#1e1e1e" text-anchor="middle" style="white-space: pre;" direction="ltr" dominant-baseline="text-before-edge">Criptografia</text></g><g stroke-linecap="round" transform="translate(10 201.13157894736844) rotate(0 114.5 21.5)"><path d="M10.75 0 C86.86 -0.18, 157.78 0.96, 218.25 0 M10.75 0 C76.47 -1.82, 142.48 -1.25, 218.25 0 M218.25 0 C227.14 0.76, 230.33 3.13, 229 10.75 M218.25 0 C224.23 -1.91, 230.27 3.44, 229 10.75 M229 10.75 C228.76 15.48, 228.42 21.17, 229 32.25 M229 10.75 C229.15 18.08, 229.11 25.18, 229 32.25 M229 32.25 C227.63 40.1, 224.96 43.48, 218.25 43 M229 32.25 C226.75 40.68, 223.47 41.41, 218.25 43 M218.25 43 C160.96 42.17, 101.62 42.24, 10.75 43 M218.25 43 C148.13 43.59, 79.27 43.74, 10.75 43 M10.75 43 C4.32 41.06, 1.05 37.63, 0 32.25 M10.75 43 C2.55 43.54, -1.47 39.65, 0 32.25 M0 32.25 C-0.78 26.33, 1.03 18.59, 0 10.75 M0 32.25 C-0.84 23.87, -1.09 15.75, 0 10.75 M0 10.75 C0.15 3.49, 1.75 -1.4, 10.75 0 M0 10.75 C0.71 2.55, 4.76 -2.18, 10.75 0" stroke="#1e1e1e" stroke-width="2" fill="none"/></g><g transform="translate(59.134765625 206.53157894736844) rotate(0 65.365234375 16.099999999999998)"><text x="65.365234375" y="0" font-family="Helvetica, Segoe UI Emoji" font-size="28px" fill="#1e1e1e" text-anchor="middle" style="white-space: pre;" direction="ltr" dominant-baseline="text-before-edge">Simulação</text></g><g stroke-linecap="round" transform="translate(32.15789473684208 373.13157894736844) rotate(0 114.5 21.5)"><path d="M10.75 0 C73.44 -0.4, 134.82 2.31, 218.25 0 M10.75 0 C63.92 -1.49, 119.08 -2.39, 218.25 0 M218.25 0 C227.21 -0.94, 230.46 2.58, 229 10.75 M218.25 0 C225.04 -0.51, 227.42 3.27, 229 10.75 M229 10.75 C229.44 17.08, 227.85 28.66, 229 32.25 M229 10.75 C228.18 18.1, 229.96 25.14, 229 32.25 M229 32.25 C227.06 38.27, 224.28 43.34, 218.25 43 M229 32.25 C227.89 37.14, 223.64 43.24, 218.25 43 M218.25 43 C153.98 44.18, 89.63 43.09, 10.75 43 M218.25 43 C174.72 45.18, 131.54 43.99, 10.75 43 M10.75 43 C2.06 44.28, 0.27 41.33, 0 32.25 M10.75 43 C2.22 41.58, 1.94 38.8, 0 32.25 M0 32.25 C0.64 24.31, 0.02 15.57, 0 10.75 M0 32.25 C0.37 24.48, -0.11 16.83, 0 10.75 M0 10.75 C-1.6 1.7, 4.82 -1.67, 10.75 0 M0 10.75 C0.87 4.98, 1.57 -0.32, 10.75 0" stroke="#1e1e1e" stroke-width="2" fill="none"/></g><g transform="translate(76.63738692434208 378.5315789473684) rotate(0 70.0205078125 16.099999999999994)"><text x="70.0205078125" y="0" font-family="Helvetica, Segoe UI Emoji" font-size="28px" fill="#1e1e1e" text-anchor="middle" style="white-space: pre;" direction="ltr" dominant-baseline="text-before-edge">Otimização</text></g><g stroke-linecap="round" transform="translate(20.15789473684208 539.1315789473684) rotate(0 114.5 37.5)"><path d="M18.75 0 C78.87 -1.9, 139.51 -2.63, 210.25 0 M18.75 0 C67.49 2.56, 117.91 1.05, 210.25 0 M210.25 0 C222.21 0.16, 230.55 7.93, 229 18.75 M210.25 0 C222.98 0, 229.81 6.32, 229 18.75 M229 18.75 C230.01 28.85, 230.31 38.87, 229 56.25 M229 18.75 C228.6 27.78, 227.84 34.58, 229 56.25 M229 56.25 C228.24 68.15, 221.98 76.11, 210.25 75 M229 56.25 C229.33 67.04, 222.04 74.85, 210.25 75 M210.25 75 C167.76 72.48, 124.23 72.67, 18.75 75 M210.25 75 C137.36 74.04, 62.88 73.45, 18.75 75 M18.75 75 C6.59 73.57, 0.64 69.26, 0 56.25 M18.75 75 C7.49 74.41, 0.38 69.97, 0 56.25 M0 56.25 C1.81 44.19, -2.07 33.01, 0 18.75 M0 56.25 C0.23 48.34, -0.56 39.19, 0 18.75 M0 18.75 C0.3 4.51, 7.77 1.3, 18.75 0 M0 18.75 C-1.7 5.27, 8.14 0.77, 18.75 0" stroke="#1e1e1e" stroke-width="2" fill="none"/></g><g transform="translate(36.58269942434208 544.4315789473685) rotate(0 98.0751953125 32.19999999999999)"><text x="98.0751953125" y="0" font-family="Helvetica, Segoe UI Emoji" font-size="28px" fill="#1e1e1e" text-anchor="middle" style="white-space: pre;" direction="ltr" dominant-baseline="text-before-edge">Aprendizado de</text><text x="98.0751953125" y="32.199999999999996" font-family="Helvetica, Segoe UI Emoji" font-size="28px" fill="#1e1e1e" text-anchor="middle" style="white-space: pre;" direction="ltr" dominant-baseline="text-before-edge">Máquina</text></g><g stroke-linecap="round" transform="translate(344.3421052631579 10) rotate(0 343.9133126934985 69.5)"><path d="M0 0 C190.4 0, 380.8 0, 687.83 0 M0 0 C139.3 0, 278.61 0, 687.83 0 M687.83 0 C687.83 37.41, 687.83 74.82, 687.83 139 M687.83 0 C687.83 32.91, 687.83 65.82, 687.83 139 M687.83 139 C525.54 139, 363.26 139, 0 139 M687.83 139 C502.76 139, 317.69 139, 0 139 M0 139 C0 106.64, 0 74.27, 0 0 M0 139 C0 107.05, 0 75.11, 0 0" stroke="#1e1e1e" stroke-width="2" fill="none"/></g><g transform="translate(349.3421052631579 15) rotate(0 336.9501953125 48.3)"><text x="0" y="0" font-family="Helvetica, Segoe UI Emoji" font-size="28px" fill="#1e1e1e" text-anchor="start" style="white-space: pre;" direction="ltr" dominant-baseline="text-before-edge">- Fatoração de números grandes em tempo polinomial</text><text x="0" y="32.199999999999996" font-family="Helvetica, Segoe UI Emoji" font-size="28px" fill="#1e1e1e" text-anchor="start" style="white-space: pre;" direction="ltr" dominant-baseline="text-before-edge">(quebra da criptografia RSA)</text><text x="0" y="64.39999999999999" font-family="Helvetica, Segoe UI Emoji" font-size="28px" fill="#1e1e1e" text-anchor="start" style="white-space: pre;" direction="ltr" dominant-baseline="text-before-edge">- Criptografia pós-quântica</text></g><g stroke-linecap="round"><g transform="translate(247.65789473684208 76.77456034120632) rotate(0 47.84210526315792 0.342635237778552)"><path d="M0 0 C15.95 0.11, 79.74 0.57, 95.68 0.69 M0 0 C15.95 0.11, 79.74 0.57, 95.68 0.69" stroke="#1e1e1e" stroke-width="4" fill="none"/></g><g transform="translate(247.65789473684208 76.77456034120632) rotate(0 47.84210526315792 0.342635237778552)"><path d="M95.68 0.69 L82.04 6.93 L82.14 -5.75 L95.68 0.69" stroke="none" stroke-width="0" fill="#1e1e1e" fill-rule="evenodd"/><path d="M95.68 0.69 C90.47 3.07, 85.26 5.45, 82.04 6.93 M95.68 0.69 C91.09 2.79, 86.5 4.89, 82.04 6.93 M82.04 6.93 C82.08 1.97, 82.12 -2.99, 82.14 -5.75 M82.04 6.93 C82.08 2.04, 82.11 -2.85, 82.14 -5.75 M82.14 -5.75 C85.99 -3.92, 89.85 -2.09, 95.68 0.69 M82.14 -5.75 C85.31 -4.24, 88.49 -2.73, 95.68 0.69 M95.68 0.69 C95.68 0.69, 95.68 0.69, 95.68 0.69 M95.68 0.69 C95.68 0.69, 95.68 0.69, 95.68 0.69" stroke="#1e1e1e" stroke-width="4" fill="none"/></g></g><mask/><g stroke-linecap="round" transform="translate(349.91885964912274 163.5980674342105) rotate(0 340.05263157894746 69.5)"><path d="M0 0 C262.88 0, 525.76 0, 680.11 0 M0 0 C233.44 0, 466.88 0, 680.11 0 M680.11 0 C680.11 42.88, 680.11 85.76, 680.11 139 M680.11 0 C680.11 42.67, 680.11 85.33, 680.11 139 M680.11 139 C480.92 139, 281.73 139, 0 139 M680.11 139 C522.53 139, 364.94 139, 0 139 M0 139 C0 89.73, 0 40.46, 0 0 M0 139 C0 84.54, 0 30.08, 0 0" stroke="#1e1e1e" stroke-width="2" fill="none"/></g><g transform="translate(354.91885964912274 168.5980674342105) rotate(0 323.72265625 64.39999999999999)"><text x="0" y="0" font-family="Helvetica, Segoe UI Emoji" font-size="28px" fill="#1e1e1e" text-anchor="start" style="white-space: pre;" direction="ltr" dominant-baseline="text-before-edge">- Sistemas Físicos Complexos como: Interações</text><text x="0" y="32.199999999999996" font-family="Helvetica, Segoe UI Emoji" font-size="28px" fill="#1e1e1e" text-anchor="start" style="white-space: pre;" direction="ltr" dominant-baseline="text-before-edge">Moleculares e propriedades químicas de compostos</text><text x="0" y="64.39999999999999" font-family="Helvetica, Segoe UI Emoji" font-size="28px" fill="#1e1e1e" text-anchor="start" style="white-space: pre;" direction="ltr" dominant-baseline="text-before-edge">- Acelerar o processo de descoberta de novos</text><text x="0" y="96.6" font-family="Helvetica, Segoe UI Emoji" font-size="28px" fill="#1e1e1e" text-anchor="start" style="white-space: pre;" direction="ltr" dominant-baseline="text-before-edge">medicamentos e tratamentos</text></g><g stroke-linecap="round"><g transform="translate(238.8401718268393 222.3328347902666) rotate(0 54.677937230812816 -0.8801206450272332)"><path d="M0 0 C18.23 -0.29, 91.13 -1.47, 109.36 -1.76 M0 0 C18.23 -0.29, 91.13 -1.47, 109.36 -1.76" stroke="#1e1e1e" stroke-width="4" fill="none"/></g><g transform="translate(238.8401718268393 222.3328347902666) rotate(0 54.677937230812816 -0.8801206450272332)"><path d="M109.36 -1.76 L95.87 4.8 L95.66 -7.88 L109.36 -1.76" stroke="none" stroke-width="0" fill="#1e1e1e" fill-rule="evenodd"/><path d="M109.36 -1.76 C104.41 0.64, 99.47 3.04, 95.87 4.8 M109.36 -1.76 C106.29 -0.27, 103.23 1.22, 95.87 4.8 M95.87 4.8 C95.78 -0.18, 95.7 -5.15, 95.66 -7.88 M95.87 4.8 C95.79 -0.14, 95.71 -5.07, 95.66 -7.88 M95.66 -7.88 C98.42 -6.65, 101.17 -5.42, 109.36 -1.76 M95.66 -7.88 C99.19 -6.3, 102.72 -4.73, 109.36 -1.76 M109.36 -1.76 C109.36 -1.76, 109.36 -1.76, 109.36 -1.76 M109.36 -1.76 C109.36 -1.76, 109.36 -1.76, 109.36 -1.76" stroke="#1e1e1e" stroke-width="4" fill="none"/></g></g><mask/><g stroke-linecap="round" transform="translate(349.7094298245614 329.1361019736842) rotate(0 339.05263157894746 69.5)"><path d="M0 0 C209.19 0, 418.38 0, 678.11 0 M0 0 C160.96 0, 321.91 0, 678.11 0 M678.11 0 C678.11 31.04, 678.11 62.08, 678.11 139 M678.11 0 C678.11 41.55, 678.11 83.09, 678.11 139 M678.11 139 C534.54 139, 390.97 139, 0 139 M678.11 139 C482.88 139, 287.64 139, 0 139 M0 139 C0 94.78, 0 50.56, 0 0 M0 139 C0 97.78, 0 56.56, 0 0" stroke="#1e1e1e" stroke-width="2" fill="none"/></g><g transform="translate(354.7094298245614 334.1361019736842) rotate(0 296.48828125 64.39999999999999)"><text x="0" y="0" font-family="Helvetica, Segoe UI Emoji" font-size="28px" fill="#1e1e1e" text-anchor="start" style="white-space: pre;" direction="ltr" dominant-baseline="text-before-edge">- Logística: melhora da eficiência logística e</text><text x="0" y="32.199999999999996" font-family="Helvetica, Segoe UI Emoji" font-size="28px" fill="#1e1e1e" text-anchor="start" style="white-space: pre;" direction="ltr" dominant-baseline="text-before-edge">planejamento de rotas</text><text x="0" y="64.39999999999999" font-family="Helvetica, Segoe UI Emoji" font-size="28px" fill="#1e1e1e" text-anchor="start" style="white-space: pre;" direction="ltr" dominant-baseline="text-before-edge">- Modelagem financeira: previsão de mercado e</text><text x="0" y="96.6" font-family="Helvetica, Segoe UI Emoji" font-size="28px" fill="#1e1e1e" text-anchor="start" style="white-space: pre;" direction="ltr" dominant-baseline="text-before-edge">riscos.</text></g><g stroke-linecap="round"><g transform="translate(264.961189776131 393.7266274865525) rotate(0 40.67793723081279 0.10440525870482986)"><path d="M0 0 C13.56 0.03, 67.8 0.17, 81.36 0.21 M0 0 C13.56 0.03, 67.8 0.17, 81.36 0.21" stroke="#1e1e1e" stroke-width="4" fill="none"/></g><g transform="translate(264.961189776131 393.7266274865525) rotate(0 40.67793723081279 0.10440525870482986)"><path d="M81.36 0.21 L67.75 6.51 L67.78 -6.17 L81.36 0.21" stroke="none" stroke-width="0" fill="#1e1e1e" fill-rule="evenodd"/><path d="M81.36 0.21 C77.95 1.79, 74.54 3.37, 67.75 6.51 M81.36 0.21 C77.43 2.03, 73.5 3.85, 67.75 6.51 M67.75 6.51 C67.76 2.56, 67.77 -1.39, 67.78 -6.17 M67.75 6.51 C67.76 1.87, 67.77 -2.78, 67.78 -6.17 M67.78 -6.17 C73.03 -3.7, 78.29 -1.23, 81.36 0.21 M67.78 -6.17 C71.96 -4.2, 76.14 -2.24, 81.36 0.21 M81.36 0.21 C81.36 0.21, 81.36 0.21, 81.36 0.21 M81.36 0.21 C81.36 0.21, 81.36 0.21, 81.36 0.21" stroke="#1e1e1e" stroke-width="4" fill="none"/></g></g><mask/><g stroke-linecap="round" transform="translate(362.7094298245614 552.5007274276331) rotate(0 339.05263157894746 25.5)"><path d="M0 0 C214.95 0, 429.89 0, 678.11 0 M0 0 C210.61 0, 421.22 0, 678.11 0 M678.11 0 C678.11 16.14, 678.11 32.28, 678.11 51 M678.11 0 C678.11 13.59, 678.11 27.18, 678.11 51 M678.11 51 C496.75 51, 315.4 51, 0 51 M678.11 51 C458.19 51, 238.27 51, 0 51 M0 51 C0 33.1, 0 15.2, 0 0 M0 51 C0 36.41, 0 21.82, 0 0" stroke="#1e1e1e" stroke-width="2" fill="none"/></g><g transform="translate(367.7094298245614 557.5007274276331) rotate(0 258.3642578125 16.099999999999994)"><text x="0" y="0" font-family="Helvetica, Segoe UI Emoji" font-size="28px" fill="#1e1e1e" text-anchor="start" style="white-space: pre;" direction="ltr" dominant-baseline="text-before-edge">- Melhora de desempenho dos algoritmos</text></g><g stroke-linecap="round"><g transform="translate(250.15789473684208 578.424105830547) rotate(0 55.64105194873977 -0.09598225209177258)"><path d="M0 0 C18.55 -0.03, 92.74 -0.16, 111.28 -0.19 M0 0 C18.55 -0.03, 92.74 -0.16, 111.28 -0.19" stroke="#1e1e1e" stroke-width="4" fill="none"/></g><g transform="translate(250.15789473684208 578.424105830547) rotate(0 55.64105194873977 -0.09598225209177258)"><path d="M111.28 -0.19 L97.7 6.17 L97.68 -6.51 L111.28 -0.19" stroke="none" stroke-width="0" fill="#1e1e1e" fill-rule="evenodd"/><path d="M111.28 -0.19 C108.55 1.09, 105.83 2.36, 97.7 6.17 M111.28 -0.19 C108.42 1.15, 105.56 2.49, 97.7 6.17 M97.7 6.17 C97.69 2.71, 97.69 -0.76, 97.68 -6.51 M97.7 6.17 C97.69 3.14, 97.69 0.1, 97.68 -6.51 M97.68 -6.51 C102.66 -4.19, 107.64 -1.88, 111.28 -0.19 M97.68 -6.51 C102.67 -4.19, 107.66 -1.88, 111.28 -0.19 M111.28 -0.19 C111.28 -0.19, 111.28 -0.19, 111.28 -0.19 M111.28 -0.19 C111.28 -0.19, 111.28 -0.19, 111.28 -0.19" stroke="#1e1e1e" stroke-width="4" fill="none"/></g></g><mask/></svg>